<mxfile host="app.diagrams.net" agent="Mozilla/5.0 (Windows NT 10.0; Win64; x64) AppleWebKit/537.36 (KHTML, like Gecko) Chrome/130.0.0.0 Safari/537.36" version="24.8.4">
  <diagram name="Página-1" id="Q7NN6FiTAqTUC5fXqsfT">
    <mxGraphModel dx="1460" dy="746" grid="1" gridSize="10" guides="1" tooltips="1" connect="1" arrows="1" fold="1" page="1" pageScale="1" pageWidth="827" pageHeight="1169" math="0" shadow="0">
      <root>
        <mxCell id="0" />
        <mxCell id="1" parent="0" />
        <mxCell id="kDJcOuvoPHoL91SmJiIJ-1" value="" style="rounded=0;whiteSpace=wrap;html=1;" vertex="1" parent="1">
          <mxGeometry x="390" y="100" width="396" height="970" as="geometry" />
        </mxCell>
        <mxCell id="kDJcOuvoPHoL91SmJiIJ-2" value="&lt;font style=&quot;vertical-align: inherit;&quot;&gt;&lt;font style=&quot;vertical-align: inherit;&quot;&gt;Sistema Bancário&lt;/font&gt;&lt;/font&gt;" style="text;html=1;align=center;verticalAlign=middle;whiteSpace=wrap;rounded=0;" vertex="1" parent="1">
          <mxGeometry x="505" y="100" width="100" height="30" as="geometry" />
        </mxCell>
        <mxCell id="kDJcOuvoPHoL91SmJiIJ-45" style="edgeStyle=orthogonalEdgeStyle;rounded=0;orthogonalLoop=1;jettySize=auto;html=1;exitX=0.5;exitY=0;exitDx=0;exitDy=0;exitPerimeter=0;endArrow=baseDash;endFill=0;" edge="1" parent="1" source="kDJcOuvoPHoL91SmJiIJ-8" target="kDJcOuvoPHoL91SmJiIJ-22">
          <mxGeometry relative="1" as="geometry">
            <Array as="points">
              <mxPoint x="305" y="210" />
            </Array>
          </mxGeometry>
        </mxCell>
        <mxCell id="kDJcOuvoPHoL91SmJiIJ-49" style="edgeStyle=orthogonalEdgeStyle;rounded=0;orthogonalLoop=1;jettySize=auto;html=1;exitX=0.75;exitY=0.1;exitDx=0;exitDy=0;exitPerimeter=0;endArrow=baseDash;endFill=0;" edge="1" parent="1" source="kDJcOuvoPHoL91SmJiIJ-8" target="kDJcOuvoPHoL91SmJiIJ-30">
          <mxGeometry relative="1" as="geometry">
            <Array as="points">
              <mxPoint x="313" y="500" />
            </Array>
          </mxGeometry>
        </mxCell>
        <mxCell id="kDJcOuvoPHoL91SmJiIJ-50" style="edgeStyle=orthogonalEdgeStyle;rounded=0;orthogonalLoop=1;jettySize=auto;html=1;exitX=0.5;exitY=0.5;exitDx=0;exitDy=0;exitPerimeter=0;endArrow=baseDash;endFill=0;" edge="1" parent="1" source="kDJcOuvoPHoL91SmJiIJ-8" target="kDJcOuvoPHoL91SmJiIJ-31">
          <mxGeometry relative="1" as="geometry">
            <Array as="points">
              <mxPoint x="305" y="670" />
            </Array>
          </mxGeometry>
        </mxCell>
        <mxCell id="kDJcOuvoPHoL91SmJiIJ-61" style="edgeStyle=orthogonalEdgeStyle;rounded=0;orthogonalLoop=1;jettySize=auto;html=1;exitX=1;exitY=1;exitDx=0;exitDy=0;exitPerimeter=0;endArrow=baseDash;endFill=0;" edge="1" parent="1" source="kDJcOuvoPHoL91SmJiIJ-8">
          <mxGeometry relative="1" as="geometry">
            <mxPoint x="690" y="640" as="targetPoint" />
            <Array as="points">
              <mxPoint x="320" y="560" />
              <mxPoint x="691" y="560" />
            </Array>
          </mxGeometry>
        </mxCell>
        <mxCell id="kDJcOuvoPHoL91SmJiIJ-62" style="edgeStyle=orthogonalEdgeStyle;rounded=0;orthogonalLoop=1;jettySize=auto;html=1;entryX=0;entryY=0.5;entryDx=0;entryDy=0;endArrow=baseDash;endFill=0;" edge="1" parent="1" source="kDJcOuvoPHoL91SmJiIJ-8" target="kDJcOuvoPHoL91SmJiIJ-46">
          <mxGeometry relative="1" as="geometry">
            <Array as="points">
              <mxPoint x="240" y="540" />
              <mxPoint x="240" y="970" />
            </Array>
          </mxGeometry>
        </mxCell>
        <mxCell id="kDJcOuvoPHoL91SmJiIJ-8" value="&lt;font style=&quot;vertical-align: inherit;&quot;&gt;&lt;font style=&quot;vertical-align: inherit;&quot;&gt;Cliente&lt;/font&gt;&lt;/font&gt;" style="shape=umlActor;verticalLabelPosition=bottom;verticalAlign=top;html=1;outlineConnect=0;" vertex="1" parent="1">
          <mxGeometry x="290" y="510" width="30" height="60" as="geometry" />
        </mxCell>
        <mxCell id="kDJcOuvoPHoL91SmJiIJ-15" style="edgeStyle=orthogonalEdgeStyle;rounded=0;orthogonalLoop=1;jettySize=auto;html=1;entryX=0;entryY=0.3333333333333333;entryDx=0;entryDy=0;entryPerimeter=0;endArrow=block;endFill=0;" edge="1" parent="1" source="kDJcOuvoPHoL91SmJiIJ-9" target="kDJcOuvoPHoL91SmJiIJ-8">
          <mxGeometry relative="1" as="geometry">
            <mxPoint x="195" y="320" as="targetPoint" />
            <Array as="points">
              <mxPoint x="200" y="530" />
            </Array>
          </mxGeometry>
        </mxCell>
        <mxCell id="kDJcOuvoPHoL91SmJiIJ-9" value="&lt;font style=&quot;vertical-align: inherit;&quot;&gt;&lt;font style=&quot;vertical-align: inherit;&quot;&gt;Pessoa Jurídica&lt;/font&gt;&lt;/font&gt;" style="shape=umlActor;verticalLabelPosition=bottom;verticalAlign=top;html=1;outlineConnect=0;" vertex="1" parent="1">
          <mxGeometry x="180" y="590" width="30" height="60" as="geometry" />
        </mxCell>
        <mxCell id="kDJcOuvoPHoL91SmJiIJ-10" value="&lt;font style=&quot;vertical-align: inherit;&quot;&gt;&lt;font style=&quot;vertical-align: inherit;&quot;&gt;Pessoa Física&lt;/font&gt;&lt;/font&gt;" style="shape=umlActor;verticalLabelPosition=bottom;verticalAlign=top;html=1;outlineConnect=0;" vertex="1" parent="1">
          <mxGeometry x="130" y="470" width="30" height="60" as="geometry" />
        </mxCell>
        <mxCell id="kDJcOuvoPHoL91SmJiIJ-17" value="&lt;font style=&quot;vertical-align: inherit;&quot;&gt;&lt;font style=&quot;vertical-align: inherit;&quot;&gt;&lt;font style=&quot;vertical-align: inherit;&quot;&gt;&lt;font style=&quot;vertical-align: inherit;&quot;&gt;Funcionário&lt;/font&gt;&lt;/font&gt;&lt;/font&gt;&lt;/font&gt;" style="shape=umlActor;verticalLabelPosition=bottom;verticalAlign=top;html=1;outlineConnect=0;" vertex="1" parent="1">
          <mxGeometry x="1070" y="250" width="30" height="60" as="geometry" />
        </mxCell>
        <mxCell id="kDJcOuvoPHoL91SmJiIJ-18" style="edgeStyle=orthogonalEdgeStyle;rounded=0;orthogonalLoop=1;jettySize=auto;html=1;entryX=0;entryY=0.3333333333333333;entryDx=0;entryDy=0;entryPerimeter=0;endArrow=block;endFill=0;" edge="1" parent="1" target="kDJcOuvoPHoL91SmJiIJ-17">
          <mxGeometry relative="1" as="geometry">
            <mxPoint x="1005" y="270" as="targetPoint" />
            <Array as="points">
              <mxPoint x="1010" y="270" />
            </Array>
            <mxPoint x="1010" y="400" as="sourcePoint" />
          </mxGeometry>
        </mxCell>
        <mxCell id="kDJcOuvoPHoL91SmJiIJ-19" value="&lt;font style=&quot;vertical-align: inherit;&quot;&gt;&lt;font style=&quot;vertical-align: inherit;&quot;&gt;Caixa&lt;/font&gt;&lt;/font&gt;" style="shape=umlActor;verticalLabelPosition=bottom;verticalAlign=top;html=1;outlineConnect=0;" vertex="1" parent="1">
          <mxGeometry x="1000" y="400" width="30" height="60" as="geometry" />
        </mxCell>
        <mxCell id="kDJcOuvoPHoL91SmJiIJ-52" style="edgeStyle=orthogonalEdgeStyle;rounded=0;orthogonalLoop=1;jettySize=auto;html=1;entryX=1;entryY=0.5;entryDx=0;entryDy=0;endArrow=baseDash;endFill=0;" edge="1" parent="1" source="kDJcOuvoPHoL91SmJiIJ-20" target="kDJcOuvoPHoL91SmJiIJ-22">
          <mxGeometry relative="1" as="geometry">
            <Array as="points">
              <mxPoint x="1180" y="430" />
              <mxPoint x="1180" y="210" />
            </Array>
          </mxGeometry>
        </mxCell>
        <mxCell id="kDJcOuvoPHoL91SmJiIJ-53" style="edgeStyle=orthogonalEdgeStyle;rounded=0;orthogonalLoop=1;jettySize=auto;html=1;endArrow=baseDash;endFill=0;" edge="1" parent="1" source="kDJcOuvoPHoL91SmJiIJ-20" target="kDJcOuvoPHoL91SmJiIJ-46">
          <mxGeometry relative="1" as="geometry">
            <Array as="points">
              <mxPoint x="1180" y="440" />
              <mxPoint x="1180" y="980" />
            </Array>
          </mxGeometry>
        </mxCell>
        <mxCell id="kDJcOuvoPHoL91SmJiIJ-20" value="&lt;font style=&quot;vertical-align: inherit;&quot;&gt;&lt;font style=&quot;vertical-align: inherit;&quot;&gt;&lt;font style=&quot;vertical-align: inherit;&quot;&gt;&lt;font style=&quot;vertical-align: inherit;&quot;&gt;Gerente&lt;/font&gt;&lt;/font&gt;&lt;/font&gt;&lt;/font&gt;" style="shape=umlActor;verticalLabelPosition=bottom;verticalAlign=top;html=1;outlineConnect=0;" vertex="1" parent="1">
          <mxGeometry x="1130" y="400" width="30" height="60" as="geometry" />
        </mxCell>
        <mxCell id="kDJcOuvoPHoL91SmJiIJ-21" style="edgeStyle=orthogonalEdgeStyle;rounded=0;orthogonalLoop=1;jettySize=auto;html=1;exitX=0.5;exitY=0;exitDx=0;exitDy=0;exitPerimeter=0;entryX=1;entryY=0.3333333333333333;entryDx=0;entryDy=0;entryPerimeter=0;endArrow=block;endFill=0;" edge="1" parent="1" source="kDJcOuvoPHoL91SmJiIJ-20" target="kDJcOuvoPHoL91SmJiIJ-17">
          <mxGeometry relative="1" as="geometry" />
        </mxCell>
        <mxCell id="kDJcOuvoPHoL91SmJiIJ-22" value="&lt;font style=&quot;vertical-align: inherit;&quot;&gt;&lt;font style=&quot;vertical-align: inherit;&quot;&gt;&lt;font style=&quot;vertical-align: inherit;&quot;&gt;&lt;font style=&quot;vertical-align: inherit;&quot;&gt;.Abrir conta&lt;/font&gt;&lt;/font&gt;&lt;/font&gt;&lt;/font&gt;" style="ellipse;whiteSpace=wrap;html=1;" vertex="1" parent="1">
          <mxGeometry x="505" y="170" width="120" height="80" as="geometry" />
        </mxCell>
        <mxCell id="kDJcOuvoPHoL91SmJiIJ-27" style="edgeStyle=orthogonalEdgeStyle;rounded=0;orthogonalLoop=1;jettySize=auto;html=1;exitX=0.5;exitY=0;exitDx=0;exitDy=0;endArrow=block;endFill=0;" edge="1" parent="1" source="kDJcOuvoPHoL91SmJiIJ-23" target="kDJcOuvoPHoL91SmJiIJ-22">
          <mxGeometry relative="1" as="geometry">
            <Array as="points">
              <mxPoint x="500" y="290" />
              <mxPoint x="530" y="290" />
            </Array>
          </mxGeometry>
        </mxCell>
        <mxCell id="kDJcOuvoPHoL91SmJiIJ-23" value="&lt;font style=&quot;vertical-align: inherit;&quot;&gt;&lt;font style=&quot;vertical-align: inherit;&quot;&gt;&lt;font style=&quot;vertical-align: inherit;&quot;&gt;&lt;font style=&quot;vertical-align: inherit;&quot;&gt;abrir conta corrente&lt;/font&gt;&lt;/font&gt;&lt;/font&gt;&lt;/font&gt;" style="ellipse;whiteSpace=wrap;html=1;" vertex="1" parent="1">
          <mxGeometry x="440" y="330" width="120" height="80" as="geometry" />
        </mxCell>
        <mxCell id="kDJcOuvoPHoL91SmJiIJ-28" style="edgeStyle=orthogonalEdgeStyle;rounded=0;orthogonalLoop=1;jettySize=auto;html=1;exitX=0.5;exitY=0;exitDx=0;exitDy=0;endArrow=block;endFill=0;" edge="1" parent="1" source="kDJcOuvoPHoL91SmJiIJ-24" target="kDJcOuvoPHoL91SmJiIJ-22">
          <mxGeometry relative="1" as="geometry">
            <Array as="points">
              <mxPoint x="640" y="290" />
              <mxPoint x="590" y="290" />
            </Array>
          </mxGeometry>
        </mxCell>
        <mxCell id="kDJcOuvoPHoL91SmJiIJ-60" style="edgeStyle=orthogonalEdgeStyle;rounded=0;orthogonalLoop=1;jettySize=auto;html=1;exitX=0.5;exitY=1;exitDx=0;exitDy=0;endArrow=block;endFill=1;dashed=1;" edge="1" parent="1" source="kDJcOuvoPHoL91SmJiIJ-24" target="kDJcOuvoPHoL91SmJiIJ-47">
          <mxGeometry relative="1" as="geometry">
            <Array as="points">
              <mxPoint x="640" y="525" />
              <mxPoint x="710" y="525" />
            </Array>
          </mxGeometry>
        </mxCell>
        <mxCell id="kDJcOuvoPHoL91SmJiIJ-63" value="&amp;lt;&amp;lt;INCLUDE&amp;gt;&amp;gt;" style="edgeLabel;html=1;align=center;verticalAlign=middle;resizable=0;points=[];" vertex="1" connectable="0" parent="kDJcOuvoPHoL91SmJiIJ-60">
          <mxGeometry x="-0.012" y="1" relative="1" as="geometry">
            <mxPoint x="5" y="-14" as="offset" />
          </mxGeometry>
        </mxCell>
        <mxCell id="kDJcOuvoPHoL91SmJiIJ-24" value="&lt;font style=&quot;vertical-align: inherit;&quot;&gt;&lt;font style=&quot;vertical-align: inherit;&quot;&gt;&lt;font style=&quot;vertical-align: inherit;&quot;&gt;&lt;font style=&quot;vertical-align: inherit;&quot;&gt;&lt;font style=&quot;vertical-align: inherit;&quot;&gt;&lt;font style=&quot;vertical-align: inherit;&quot;&gt;abrir conta poupança&lt;/font&gt;&lt;/font&gt;&lt;/font&gt;&lt;/font&gt;&lt;/font&gt;&lt;/font&gt;" style="ellipse;whiteSpace=wrap;html=1;" vertex="1" parent="1">
          <mxGeometry x="580" y="330" width="120" height="80" as="geometry" />
        </mxCell>
        <mxCell id="kDJcOuvoPHoL91SmJiIJ-30" value="&lt;font style=&quot;vertical-align: inherit;&quot;&gt;&lt;font style=&quot;vertical-align: inherit;&quot;&gt;&lt;font style=&quot;vertical-align: inherit;&quot;&gt;&lt;font style=&quot;vertical-align: inherit;&quot;&gt;.Tirar Saldo&lt;/font&gt;&lt;/font&gt;&lt;/font&gt;&lt;/font&gt;" style="ellipse;whiteSpace=wrap;html=1;" vertex="1" parent="1">
          <mxGeometry x="450" y="470" width="120" height="80" as="geometry" />
        </mxCell>
        <mxCell id="kDJcOuvoPHoL91SmJiIJ-31" value="&lt;font style=&quot;vertical-align: inherit;&quot;&gt;&lt;font style=&quot;vertical-align: inherit;&quot;&gt;&lt;font style=&quot;vertical-align: inherit;&quot;&gt;&lt;font style=&quot;vertical-align: inherit;&quot;&gt;&lt;font style=&quot;vertical-align: inherit;&quot;&gt;&lt;font style=&quot;vertical-align: inherit;&quot;&gt;.Tirar Extrato&lt;/font&gt;&lt;/font&gt;&lt;/font&gt;&lt;/font&gt;&lt;/font&gt;&lt;/font&gt;" style="ellipse;whiteSpace=wrap;html=1;" vertex="1" parent="1">
          <mxGeometry x="450" y="630" width="120" height="80" as="geometry" />
        </mxCell>
        <mxCell id="kDJcOuvoPHoL91SmJiIJ-55" style="edgeStyle=orthogonalEdgeStyle;rounded=0;orthogonalLoop=1;jettySize=auto;html=1;exitX=1;exitY=0.5;exitDx=0;exitDy=0;endArrow=block;endFill=1;dashed=1;" edge="1" parent="1" source="kDJcOuvoPHoL91SmJiIJ-33" target="kDJcOuvoPHoL91SmJiIJ-48">
          <mxGeometry relative="1" as="geometry" />
        </mxCell>
        <mxCell id="kDJcOuvoPHoL91SmJiIJ-33" value="&lt;font style=&quot;vertical-align: inherit;&quot;&gt;&lt;font style=&quot;vertical-align: inherit;&quot;&gt;Realizar Saques&lt;/font&gt;&lt;/font&gt;" style="ellipse;whiteSpace=wrap;html=1;" vertex="1" parent="1">
          <mxGeometry x="450" y="770" width="120" height="80" as="geometry" />
        </mxCell>
        <mxCell id="kDJcOuvoPHoL91SmJiIJ-42" style="edgeStyle=orthogonalEdgeStyle;rounded=0;orthogonalLoop=1;jettySize=auto;html=1;exitX=0.5;exitY=0.5;exitDx=0;exitDy=0;exitPerimeter=0;entryX=0.25;entryY=0.1;entryDx=0;entryDy=0;entryPerimeter=0;endArrow=block;endFill=0;" edge="1" parent="1" source="kDJcOuvoPHoL91SmJiIJ-10" target="kDJcOuvoPHoL91SmJiIJ-8">
          <mxGeometry relative="1" as="geometry" />
        </mxCell>
        <mxCell id="kDJcOuvoPHoL91SmJiIJ-46" value=".encerrar conta" style="ellipse;whiteSpace=wrap;html=1;" vertex="1" parent="1">
          <mxGeometry x="440" y="930" width="120" height="80" as="geometry" />
        </mxCell>
        <mxCell id="kDJcOuvoPHoL91SmJiIJ-56" style="edgeStyle=orthogonalEdgeStyle;rounded=0;orthogonalLoop=1;jettySize=auto;html=1;exitX=0.5;exitY=1;exitDx=0;exitDy=0;dashed=1;" edge="1" parent="1" source="kDJcOuvoPHoL91SmJiIJ-47" target="kDJcOuvoPHoL91SmJiIJ-48">
          <mxGeometry relative="1" as="geometry" />
        </mxCell>
        <mxCell id="kDJcOuvoPHoL91SmJiIJ-64" value="&amp;lt;&amp;lt;INCLUDE&amp;gt;&amp;gt;" style="edgeLabel;html=1;align=center;verticalAlign=middle;resizable=0;points=[];" vertex="1" connectable="0" parent="kDJcOuvoPHoL91SmJiIJ-56">
          <mxGeometry x="-0.28" y="-1" relative="1" as="geometry">
            <mxPoint x="-84" y="62" as="offset" />
          </mxGeometry>
        </mxCell>
        <mxCell id="kDJcOuvoPHoL91SmJiIJ-47" value="Fazer depósito" style="ellipse;whiteSpace=wrap;html=1;" vertex="1" parent="1">
          <mxGeometry x="625" y="640" width="120" height="80" as="geometry" />
        </mxCell>
        <mxCell id="kDJcOuvoPHoL91SmJiIJ-48" value="Registrar transação" style="ellipse;whiteSpace=wrap;html=1;" vertex="1" parent="1">
          <mxGeometry x="625" y="770" width="120" height="80" as="geometry" />
        </mxCell>
        <mxCell id="kDJcOuvoPHoL91SmJiIJ-51" style="edgeStyle=orthogonalEdgeStyle;rounded=0;orthogonalLoop=1;jettySize=auto;html=1;endArrow=baseDash;endFill=0;" edge="1" parent="1" source="kDJcOuvoPHoL91SmJiIJ-8">
          <mxGeometry relative="1" as="geometry">
            <mxPoint x="450" y="810" as="targetPoint" />
            <Array as="points">
              <mxPoint x="270" y="560" />
              <mxPoint x="270" y="810" />
            </Array>
          </mxGeometry>
        </mxCell>
        <mxCell id="kDJcOuvoPHoL91SmJiIJ-57" style="edgeStyle=orthogonalEdgeStyle;rounded=0;orthogonalLoop=1;jettySize=auto;html=1;exitX=0.5;exitY=1;exitDx=0;exitDy=0;entryX=0.583;entryY=0.025;entryDx=0;entryDy=0;entryPerimeter=0;dashed=1;" edge="1" parent="1" source="kDJcOuvoPHoL91SmJiIJ-33" target="kDJcOuvoPHoL91SmJiIJ-46">
          <mxGeometry relative="1" as="geometry" />
        </mxCell>
        <mxCell id="kDJcOuvoPHoL91SmJiIJ-66" value="&amp;lt;&amp;lt;EXTEND&amp;gt;&amp;gt;" style="edgeLabel;html=1;align=center;verticalAlign=middle;resizable=0;points=[];" vertex="1" connectable="0" parent="kDJcOuvoPHoL91SmJiIJ-57">
          <mxGeometry x="0.0976" y="-2" relative="1" as="geometry">
            <mxPoint x="42" as="offset" />
          </mxGeometry>
        </mxCell>
        <mxCell id="kDJcOuvoPHoL91SmJiIJ-59" style="edgeStyle=orthogonalEdgeStyle;rounded=0;orthogonalLoop=1;jettySize=auto;html=1;dashed=1;endArrow=baseDash;endFill=0;" edge="1" parent="1" source="kDJcOuvoPHoL91SmJiIJ-58">
          <mxGeometry relative="1" as="geometry">
            <mxPoint x="510" y="880" as="targetPoint" />
            <Array as="points">
              <mxPoint x="582" y="880" />
              <mxPoint x="582" y="881" />
            </Array>
          </mxGeometry>
        </mxCell>
        <mxCell id="kDJcOuvoPHoL91SmJiIJ-58" value="se houver saldo" style="shape=note;whiteSpace=wrap;html=1;backgroundOutline=1;darkOpacity=0.05;" vertex="1" parent="1">
          <mxGeometry x="652.5" y="870" width="65" height="80" as="geometry" />
        </mxCell>
        <mxCell id="kDJcOuvoPHoL91SmJiIJ-65" value="&amp;lt;&amp;lt;INCLUDE&amp;gt;&amp;gt;" style="edgeLabel;html=1;align=center;verticalAlign=middle;resizable=0;points=[];" vertex="1" connectable="0" parent="1">
          <mxGeometry x="717.5" y="748" as="geometry" />
        </mxCell>
      </root>
    </mxGraphModel>
  </diagram>
</mxfile>
